<svg class="icon" viewBox="0 0 1024 1024" version="1.1" xmlns="http://www.w3.org/2000/svg" width="200" height="200"><path d="M657.066667 34.133333H186.026667c-34.133333 0-63.146667 32.426667-63.146667 69.973334v814.08c0 39.253333 29.013333 69.973333 63.146667 69.973333h645.12c39.253333 0 69.973333-32.426667 69.973333-69.973333V283.306667L657.066667 34.133333z m56.32 546.133334l-204.8 204.8c-25.6 25.6-59.733333 39.253333-93.866667 39.253333s-68.266667-13.653333-93.866667-39.253333c-25.6-25.6-39.253333-58.026667-39.253333-93.866667s13.653333-68.266667 39.253333-93.866667l170.666667-170.666666c11.946667-11.946667 29.013333-11.946667 40.96 0s11.946667 29.013333 0 40.96l-170.666667 170.666666c-13.653333 13.653333-22.186667 32.426667-22.186666 52.906667 0 20.48 8.533333 39.253333 22.186666 52.906667 29.013333 29.013333 76.8 29.013333 105.813334 0l203.093333-203.093334c15.36-15.36 15.36-40.96 0-58.026666-15.36-15.36-42.666667-15.36-58.026667 0L411.306667 686.08c-1.706667 1.706667-1.706667 6.826667 0 8.533333 1.706667 1.706667 6.826667 1.706667 8.533333 0l170.666667-170.666666c11.946667-11.946667 29.013333-11.946667 40.96 0s11.946667 29.013333 0 40.96l-170.666667 170.666666c-11.946667 11.946667-27.306667 18.773333-44.373333 18.773334s-32.426667-6.826667-44.373334-18.773334c-11.946667-11.946667-18.773333-27.306667-18.773333-44.373333s6.826667-32.426667 18.773333-44.373333L575.146667 443.733333c18.773333-18.773333 42.666667-29.013333 69.973333-29.013333 25.6 0 51.2 10.24 69.973333 29.013333 35.84 37.546667 35.84 98.986667-1.706666 136.533334z m-5.12-259.413334c-39.253333 0-71.68-35.84-71.68-81.92V116.053333l203.093333 204.8h-131.413333z"/></svg>
