<svg class="icon" viewBox="0 0 1024 1024" version="1.1" xmlns="http://www.w3.org/2000/svg" width="200" height="200"><path d="M567.156364 517.585455v-124.043637l-123.112728-31.418182v155.461819l-37.701818 34.676363a149.410909 149.410909 0 1 0 198.749091 0zM681.425455 465.454545v-190.138181a175.941818 175.941818 0 1 0-351.65091 0V465.454545a270.196364 270.196364 0 0 0-87.970909 199.214546 266.705455 266.705455 0 0 0 263.912728 269.265454 266.472727 266.472727 0 0 0 263.68-269.032727A269.265455 269.265455 0 0 0 681.425455 465.454545z m-175.709091 378.88a179.2 179.2 0 0 1-116.363637-312.087272L418.909091 505.716364v-230.4a87.970909 87.970909 0 1 1 175.941818 0v230.4l29.090909 26.530909a179.432727 179.432727 0 0 1-116.363636 312.087272z"/></svg>
