<svg t="1665567378841" class="icon" viewBox="0 0 1024 1024" version="1.1" xmlns="http://www.w3.org/2000/svg" p-id="3025" width="1200" height="1200"><path d="M872.3 306.4c-19.9-47-48.3-89.1-84.5-125.3s-78.4-64.6-125.3-84.5c-48.6-20.6-100.3-31-153.5-31S404 76 355.4 96.6c-47 19.9-89.1 48.3-125.3 84.5s-64.6 78.4-84.5 125.3c-20.6 48.6-31 100.3-31 153.5s10.4 104.9 31 153.5c19.9 47 48.3 89.1 84.5 125.3s78.4 64.6 125.3 84.5c40.1 16.9 82.2 27 125.5 30v49.3H264.7c-15.5 0-28 12.5-28 28s12.5 28 28 28h488.5c15.5 0 28-12.5 28-28s-12.5-28-28-28H536.9v-49.3c43.3-3 85.5-13.1 125.5-30 47-19.9 89.1-48.3 125.3-84.5s64.6-78.4 84.5-125.3c20.6-48.6 31-100.3 31-153.5s-10.3-104.8-30.9-153.5zM670 621c-43 43-100.2 66.7-161.1 66.7S390.9 664 347.8 621c-43-43-66.7-100.2-66.7-161.1s23.7-118.1 66.7-161.1 100.2-66.7 161.1-66.7S627 255.8 670 298.8s66.7 100.2 66.7 161.1S713 578 670 621z" fill="" p-id="3026"></path><path d="M508.9 459.9m-98.8 0a98.8 98.8 0 1 0 197.6 0 98.8 98.8 0 1 0-197.6 0Z" p-id="3027"></path></svg>
