<svg class="icon" viewBox="0 0 1024 1024" version="1.1" xmlns="http://www.w3.org/2000/svg" width="128" height="128"><path d="M947.2 252.416h-166.058667v-74.069333a49.493333 49.493333 0 0 0-49.322666-49.493334H292.181333a49.493333 49.493333 0 0 0-49.322666 49.493334v74.069333H76.8a42.666667 42.666667 0 0 0-42.666667 42.666667v76.970666a42.666667 42.666667 0 0 0 42.666667 42.666667h62.122667v430.933333a49.493333 49.493333 0 0 0 48.810666 49.493334h648.533334a49.493333 49.493333 0 0 0 49.322666-49.493334v-73.898666a107.690667 107.690667 0 0 0 0-207.36V414.72h61.610667a42.666667 42.666667 0 0 0 42.666667-42.666667v-76.970666a42.666667 42.666667 0 0 0-42.666667-42.666667z m-307.2 410.624h-102.4v102.4a25.6 25.6 0 0 1-51.2 0v-102.4h-102.4a25.6 25.6 0 0 1 0-51.2h102.4v-102.4a25.6 25.6 0 1 1 51.2 0v102.4h102.4a25.6 25.6 0 0 1 0 51.2z m273.066667 5.12a56.661333 56.661333 0 1 1-56.661334-56.661333 56.661333 56.661333 0 0 1 56.149334 56.661333zM774.826667 414.72h59.050666v128z m163.84-51.2H85.333333v-59.904h853.333334z" /></svg>
