<?xml version="1.0" standalone="no"?><!DOCTYPE svg PUBLIC "-//W3C//DTD SVG 1.1//EN" "http://www.w3.org/Graphics/SVG/1.1/DTD/svg11.dtd"><svg t="1652489491703" class="icon" viewBox="0 0 1024 1024" version="1.1" xmlns="http://www.w3.org/2000/svg" p-id="13535" xmlns:xlink="http://www.w3.org/1999/xlink" width="128" height="128"><defs><style type="text/css"></style></defs><path d="M512 475.136c-18.773333 0-34.133333-15.36-34.133333-34.133333V193.024c0-18.773333 15.36-34.133333 34.133333-34.133333s34.133333 15.36 34.133333 34.133333v247.978667c0 18.773333-15.36 34.133333-34.133333 34.133333zM775.850667 475.136c-18.773333 0-34.133333-15.36-34.133334-34.133333v-123.904c0-18.773333 15.36-34.133333 34.133334-34.133334s34.133333 15.36 34.133333 34.133334v123.904a34.133333 34.133333 0 0 1-34.133333 34.133333zM248.149333 475.136c-18.773333 0-34.133333-15.36-34.133333-34.133333v-123.904c0-18.773333 15.36-34.133333 34.133333-34.133334s34.133333 15.36 34.133334 34.133334v123.904c0 18.773333-15.36 34.133333-34.133334 34.133333z" p-id="13536"></path><path d="M393.728 214.357333c-18.773333 0-34.133333-15.36-34.133333-34.133333V145.237333c0-61.269333 49.834667-111.104 111.104-111.104h84.650666c61.269333 0 111.104 49.834667 111.104 111.104v33.621334c0 18.773333-15.36 34.133333-34.133333 34.133333s-34.133333-15.36-34.133333-34.133333V145.237333c0-23.552-19.285333-42.837333-42.837334-42.837333h-84.650666c-23.552 0-42.837333 19.285333-42.837334 42.837333v34.986667c0 18.773333-15.36 34.133333-34.133333 34.133333z" p-id="13537"></path><path d="M921.6 413.866667H102.4c-37.717333 0-68.266667 30.549333-68.266667 68.266666v406.869334c0 37.717333 30.549333 68.266667 68.266667 68.266666h819.2c37.717333 0 68.266667-30.549333 68.266667-68.266666V482.133333c0-37.717333-30.549333-68.266667-68.266667-68.266666zM537.088 700.245333H372.053333c-18.773333 0-34.133333-15.36-34.133333-34.133333s15.36-34.133333 34.133333-34.133333h165.034667a34.133333 34.133333 0 1 1 0 68.266666z m146.432-21.162666c-1.877333 4.096-4.266667 7.850667-7.509333 11.093333-6.485333 6.485333-15.018667 10.069333-24.064 10.069333-4.608 0-9.045333-0.853333-13.141334-2.730666-4.096-1.706667-7.850667-4.096-11.093333-7.338667s-5.632-6.997333-7.338667-11.093333c-1.706667-4.096-2.730667-8.533333-2.730666-13.141334 0-2.218667 0.341333-4.437333 0.682666-6.656 0.512-2.048 1.194667-4.266667 2.048-6.314666 0.853333-2.048 1.877333-4.096 3.072-5.973334 1.365333-1.706667 2.730667-3.584 4.266667-5.12s3.413333-2.901333 5.290667-4.266666c1.706667-1.194667 3.754667-2.218667 5.802666-3.072 2.048-0.853333 4.266667-1.536 6.485334-2.048 4.266667-0.853333 8.874667-0.853333 13.312 0 2.048 0.512 4.266667 1.194667 6.314666 2.048s4.096 1.877333 5.973334 3.072c1.877333 1.365333 3.584 2.730667 5.12 4.266666s3.072 3.413333 4.266666 5.12c1.194667 1.877333 2.218667 3.925333 3.072 5.973334s1.536 4.266667 2.048 6.314666c0.341333 2.218667 0.682667 4.437333 0.682667 6.656 0 4.608-0.853333 9.045333-2.56 13.141334z" p-id="13538"></path></svg>