<svg class="icon" viewBox="0 0 1024 1024" version="1.1" xmlns="http://www.w3.org/2000/svg" width="128" height="128"><path d="M832 917.333333h-128V106.666667h128c46.933333 0 85.333333 38.4 85.333333 85.333333v640c0 46.933333-38.4 85.333333-85.333333 85.333333zM192 106.666667C145.066667 106.666667 106.666667 145.066667 106.666667 192v640c0 46.933333 38.4 85.333333 85.333333 85.333333h448V106.666667H192z m74.666667 746.666666c-17.066667 0-32-14.933333-32-32s14.933333-32 32-32 32 14.933333 32 32-14.933333 32-32 32z m106.666666 0c-17.066667 0-32-14.933333-32-32s14.933333-32 32-32 32 14.933333 32 32-14.933333 32-32 32z m106.666667 0c-17.066667 0-32-14.933333-32-32s14.933333-32 32-32 32 14.933333 32 32-14.933333 32-32 32zM533.333333 569.6c0 4.266667-2.133333 6.4-4.266666 8.533333l-119.466667 85.333334c-14.933333 10.666667-34.133333 10.666667-49.066667 0l-119.466666-85.333334c-2.133333-2.133333-4.266667-6.4-4.266667-8.533333l-19.2-296.533333c0-8.533333 6.4-14.933333 14.933333-12.8l130.133334 32c14.933333 4.266667 32 4.266667 46.933333 0l130.133333-32c8.533333-2.133333 17.066667 4.266667 14.933334 12.8l-21.333334 296.533333z" /></svg>
