<svg t="1651711514406" class="icon" viewBox="0 0 1024 1024" version="1.1" xmlns="http://www.w3.org/2000/svg" p-id="5388" width="128" height="128"><path d="M682.147025 122.268657c36.008119 0 70.900537 6.892896 103.867224 20.58189a268.201393 268.201393 0 0 1 85.200875 56.258866c24.647323 24.229572 44.118607 52.412498 57.715901 83.937433A257.997055 257.997055 0 0 1 950.129353 386.348577c0 33.756338-6.89799 68.928955-20.592079 104.71801-11.360796 29.904876-27.892537 60.925453-48.887085 92.251702-33.267264 49.569751-79.016119 101.269015-135.820099 153.681512-94.228378 86.876975-187.341055 146.788617-191.299503 149.320597L529.499701 901.731343a32.594786 32.594786 0 0 1-34.994308 0l-24.03598-15.40585c-3.958448-2.435184-97.173015-62.448716-191.299503-149.325692-56.80398-52.412498-102.542647-104.111761-135.815005-153.681512-20.994547-31.326249-37.429493-62.346826-48.887084-92.251702C80.768637 455.282627 73.870647 420.104915 73.870647 386.348577c0-35.78396 7.203662-70.559204 21.300219-103.301731 13.592199-31.524935 32.961592-59.707861 57.7159-83.937433A267.625711 267.625711 0 0 1 238.087642 142.850547C271.049234 129.161552 305.946746 122.268657 341.944677 122.268657a271.008478 271.008478 0 0 1 141.194825 39.533532 264.40597 264.40597 0 0 1 28.906349 20.37811 264.40597 264.40597 0 0 1 28.906348-20.37811A271.008478 271.008478 0 0 1 682.147025 122.268657zM596.059701 280.199005h-0.229253a20.969075 20.969075 0 0 0-20.148856 15.869453l-66.575284 265.322985-61.236218-183.097314a21.025114 21.025114 0 0 0-19.038249-14.300338c-9.562428-0.713234-16.771184 4.676776-20.204896 12.680279l-57.573253 133.914746H196.776119a20.979264 20.979264 0 0 0-21.014925 20.938507 20.979264 20.979264 0 0 0 21.014925 20.948697h168.119403a20.96398 20.96398 0 0 0 19.308259-12.705751l41.275861-95.965612 66.585472 199.073751A20.989453 20.989453 0 0 0 512 657.19403c0.27001 0 0.54002 0 0.804935-0.015284a20.96398 20.96398 0 0 0 19.573174-15.854169l64.56804-257.344955 41.877015 153.054885a21.02002 21.02002 0 0 0 20.286408 15.441513h168.119403a20.979264 20.979264 0 0 0 21.009831-20.943602 20.979264 20.979264 0 0 0-21.014925-20.943602h-152.071642L616.341015 295.635423A21.040398 21.040398 0 0 0 596.059701 280.199005z" fill="#ffffff" p-id="5389"></path></svg>
