<?xml version="1.0" standalone="no"?><!DOCTYPE svg PUBLIC "-//W3C//DTD SVG 1.1//EN" "http://www.w3.org/Graphics/SVG/1.1/DTD/svg11.dtd"><svg t="1651710010442" class="icon" viewBox="0 0 1024 1024" version="1.1" xmlns="http://www.w3.org/2000/svg" p-id="2162" width="128" height="128" xmlns:xlink="http://www.w3.org/1999/xlink"><defs><style type="text/css"></style></defs><path d="M896 213.333333a42.666667 42.666667 0 0 1 42.666667 42.666667v597.333333a42.666667 42.666667 0 0 1-42.666667 42.666667H128a42.666667 42.666667 0 0 1-42.666667-42.666667V256a42.666667 42.666667 0 0 1 42.666667-42.666667h768z m-85.333333 128H213.333333v426.666667h597.333334V341.333333z m-234.666667 42.666667v106.666667H682.666667v128h-106.666667V725.333333h-128v-106.666666H341.333333v-128h106.666667V384h128zM640 85.333333a85.333333 85.333333 0 0 1 85.12 78.933334L725.333333 170.666667H298.666667a85.333333 85.333333 0 0 1 85.333333-85.333334h256z" p-id="2163"></path></svg>