<?xml version="1.0" standalone="no"?><!DOCTYPE svg PUBLIC "-//W3C//DTD SVG 1.1//EN" "http://www.w3.org/Graphics/SVG/1.1/DTD/svg11.dtd"><svg t="1653268585159" class="icon" viewBox="0 0 1024 1024" version="1.1" xmlns="http://www.w3.org/2000/svg" p-id="8963" xmlns:xlink="http://www.w3.org/1999/xlink" width="200" height="200"><defs><style type="text/css"></style></defs><path d="M960 1024H64a64 64 0 0 1-64-64V64a64 64 0 0 1 64-64h896a64.08 64.08 0 0 1 64 64v896a64 64 0 0 1-64 64zM176 800a48 48 0 0 0-48 48 48 48 0 0 0 48 48h672a48 48 0 0 0 48-48 48 48 0 0 0-48-48z m656.16-589.568a71.792 71.792 0 0 0-68.448 49.776l-103.856 319.552a72.336 72.336 0 0 0 1.088 47.648 16 16 0 0 0-8 17.232l17.952 89.28a15.792 15.792 0 0 0 10.736 12.064 16.208 16.208 0 0 0 4.992 0.784 16 16 0 0 0 10.8-4.24l66.976-61.712A16 16 0 0 0 768 662.144a71.184 71.184 0 0 0 28.896-37.904l103.824-319.552a72.096 72.096 0 0 0-46.24-90.736 71.904 71.904 0 0 0-22.336-3.52zM176 592a48 48 0 0 0-48 48 48 48 0 0 0 48 48h256a48 48 0 0 0 48-48 48 48 0 0 0-48-48z m53.072-426.16c-55.728 0-101.056 50.128-101.056 111.728a117.68 117.68 0 0 0 33.088 82.704c48.704 64.24 140.8 119.184 141.776 119.728 0.896-0.576 91.984-59.488 140.304-124.704a113.2 113.2 0 0 0 20.208-33.44 81.968 81.968 0 0 0 8.192-47.168 116.928 116.928 0 0 0-30.4-77.072 95.744 95.744 0 0 0-70.576-31.776 93.968 93.968 0 0 0-58.016 20.208c-5.888-0.336-11.84-0.512-17.712-0.512-2.768 0-5.568 0-8.288 0.112a94.016 94.016 0 0 0-57.536-19.808z" p-id="8964"></path></svg>