<?xml version="1.0" standalone="no"?><!DOCTYPE svg PUBLIC "-//W3C//DTD SVG 1.1//EN" "http://www.w3.org/Graphics/SVG/1.1/DTD/svg11.dtd"><svg t="1653266325469" class="icon" viewBox="0 0 1024 1024" version="1.1" xmlns="http://www.w3.org/2000/svg" p-id="1400" xmlns:xlink="http://www.w3.org/1999/xlink" width="200" height="200"><defs><style type="text/css"></style></defs><path d="M607.9744 568.576c184.32 0 334.2848 147.712 334.2848 329.2416v19.3792c-0.0256 93.7472-145.1264 96.768-317.0048 96.8704h-232.1152C214.9632 1013.9648 76.8 1010.944 76.8 917.1968v-19.3792c0-181.5296 149.9648-329.216 334.2848-329.216h196.8896zM550.4 679.04h-76.8v89.6H384v76.8h89.6v89.6h76.8v-89.6H640v-76.8h-89.6v-89.6z m-50.7392-652.8c146.3552 0 265.344 117.248 265.344 261.4528 0 144.2048-119.04 261.504-265.344 261.504-146.3296 0-265.3184-117.2992-265.3184-261.504 0-144.1792 118.9888-261.4528 265.3184-261.4528z" p-id="1401"></path></svg>