<svg class="icon" viewBox="0 0 1024 1024" version="1.1" xmlns="http://www.w3.org/2000/svg" width="200" height="200"><path d="M938.268444 938.666667h-113.777777v-199.111111-14.222223a42.666667 42.666667 0 0 0-85.333334 0l-0.256 10.126223-13.084444 15.217777a22.812444 22.812444 0 0 1-29.781333 2.104889l-119.893334-95.544889a22.784 22.784 0 0 0-36.408889 18.176v190.264889c0 44.259556-28.956444 73.045333-73.386666 73.045334H194.275556A80.327111 80.327111 0 0 1 113.777778 858.538667v-34.759111s-3.982222-305.265778 272.839111-479.118223a23.580444 23.580444 0 0 1 28.558222 3.100445 16863.061333 16863.061333 0 0 1 263.111111 260.920889A155.022222 155.022222 0 0 1 781.824 568.888889a156.444444 156.444444 0 0 1 156.444444 156.444444V938.666667z m-284.444444-512a170.666667 170.666667 0 1 1 0-341.333334 170.666667 170.666667 0 0 1 0 341.333334z m128 455.111111h0.028444z" /><path d="M938.268444 938.666667h-113.777777v-199.111111-14.222223a42.666667 42.666667 0 0 0-85.333334 0l-0.256 10.126223-13.084444 15.217777a22.812444 22.812444 0 0 1-29.781333 2.104889l-119.893334-95.544889a22.784 22.784 0 0 0-36.408889 18.176v190.264889c0 44.259556-28.956444 73.045333-73.386666 73.045334H194.275556A80.327111 80.327111 0 0 1 113.777778 858.538667v-34.759111s-3.982222-305.265778 272.839111-479.118223a23.580444 23.580444 0 0 1 28.558222 3.100445 16863.061333 16863.061333 0 0 1 263.111111 260.920889A155.022222 155.022222 0 0 1 781.824 568.888889a156.444444 156.444444 0 0 1 156.444444 156.444444V938.666667z m-284.444444-512a170.666667 170.666667 0 1 1 0-341.333334 170.666667 170.666667 0 0 1 0 341.333334z"/></svg>
