<svg t="1658992070287" class="icon" viewBox="0 0 1024 1024" version="1.1" xmlns="http://www.w3.org/2000/svg" p-id="23676" width="1200" height="1200"><path d="M228.639351 117.092835l597.761246 0 0 580.529793-597.761246 0 0-580.529793Z" p-id="23677"></path><path d="M875.447662 69.604264 180.314739 69.604264 180.314739 954.349687 228.639351 954.349687 228.639351 906.862139 228.639351 697.622628 228.639351 117.092835 826.400596 117.092835 826.400596 697.622628 826.400596 906.862139 826.400596 954.349687 875.447662 954.349687Z" p-id="23678"></path><path d="M272.012184 192.592366l511.016603 0 0 50.385551-511.016603 0 0-50.385551Z" p-id="23679"></path><path d="M272.012184 382.164956l447.443705 0 0 50.385551-447.443705 0 0-50.385551Z" p-id="23680"></path><path d="M272.012184 489.671459l255.869528 0 0 50.385551-255.869528 0 0-50.385551Z" p-id="23681"></path><path d="M362.048853 827.55865l-131.688634 126.771333-32.931904-34.209292 131.688634-126.771333 32.931904 34.209292Z" p-id="23682"></path><path d="M329.613378 793.370303l131.688634 126.771333-32.931904 34.209292-131.688634-126.771333 32.931904-34.209292Z" p-id="23683"></path><path d="M560.387465 827.556128l-131.688634 126.771333-32.931904-34.209292 131.688634-126.771333 32.931904 34.209292Z" p-id="23684"></path><path d="M527.957325 793.366653l131.688634 126.771333-32.931904 34.209292-131.688634-126.771333 32.931904-34.209292Z" p-id="23685"></path><path d="M758.728669 827.553197l-131.688634 126.771333-32.931904-34.209292 131.688634-126.771333 32.931904 34.209292Z" p-id="23686"></path><path d="M726.304001 793.364129l131.688634 126.771333-32.931904 34.209292-131.688634-126.771333 32.931904-34.209292Z" p-id="23687"></path></svg>
