<svg class="icon" viewBox="0 0 1024 1024" version="1.1" xmlns="http://www.w3.org/2000/svg" width="200" height="200"><path d="M423.654394 109.60121l209.662137 0c24.267706 0 44.74918-23.535019 44.74918-52.608172 0-29.001521-20.482497-52.473095-46.075385-52.473095L423.654394 4.519943c-25.560142 0-46.012963 23.471574-46.012963 52.473095C377.641431 86.066191 398.129045 109.60121 423.654394 109.60121z"/><path d="M858.331331 77.248362l-60.067051 0c0 0-42.030255 11.601222-42.030255 17.435091 0 44.190455-31.026644 87.680968-68.023256 87.680968L369.421212 182.364421c-38.847773 0-69.942979-43.490513-69.942979-87.680968 0.033769-5.833869-37.724183-17.435091-37.724183-17.435091l-65.596997 0c-84.430948 0-105.183598 49.392944-105.183598 120.661104l0 705.733353c0 76.503395 29.701462 119.333876 111.547539 119.333876l649.445372 0c81.808214 0 121.586173-33.549094 121.586173-119.333876l0-705.733353C973.552539 126.641305 936.296007 77.248362 858.331331 77.248362zM751.726362 774.026762 300.409442 774.026762c-16.610306 0-33.216519-21.011546-33.216519-38.250162 0-17.10661 14.055111-31.822776 30.694069-31.822776l449.990714 0c16.576537 0 30.631648 13.389962 31.956829 31.822776C779.835559 753.015216 768.297782 774.026762 751.726362 774.026762zM753.515101 587.205842 302.264697 587.205842c-16.643052 0-27.217898-18.49626-27.217898-35.670407 0-17.203824 14.055111-34.406624 30.665417-34.406624l449.989691 0c16.639982 0 30.695093 15.944134 31.953759 34.406624C787.655665 568.709583 770.153036 587.205842 753.515101 587.205842zM753.515101 395.276578 302.264697 395.276578c-16.643052 0-27.217898-18.432815-27.217898-35.670407 0-17.169031 14.055111-34.372855 30.665417-34.372855l449.989691 0c16.639982 0 30.695093 15.945157 31.953759 34.372855C787.655665 376.843764 770.153036 395.276578 753.515101 395.276578z"/></svg>
